<svg viewBox="0 0 93 79" fill="none" xmlns="http://www.w3.org/2000/svg">
    <path d="M92 25.3824C93.3333 26.1522 93.3333 28.0767 91.9999 28.8465L81 35.1973C80.3812 35.5545 80 36.2148 80 36.9293V58.1795C80 58.894 79.6188 59.5543 79 59.9115L47 78.3867C46.3812 78.744 45.6188 78.744 45 78.3867L13 59.9115C12.3812 59.5543 12 58.894 12 58.1795V36.7456C12 36.0359 11.6238 35.3793 11.0115 35.0203L6.51154 32.382C5.17825 31.6003 3.5 32.5618 3.5 34.1074V45.5842C3.5 45.9984 3.83579 46.3342 4.25 46.3342C4.66422 46.3342 5 46.67 5 47.0842V57.3342C5 58.4388 4.10457 59.3342 3 59.3342H2C0.895426 59.3342 0 58.4388 0 57.3342V47.0842C0 46.67 0.335786 46.3342 0.75 46.3342C1.16422 46.3342 1.5 45.9984 1.5 45.5842V30.2393C1.5 29.7464 1.23873 29.2904 0.813486 29.0412C-0.10531 28.5028 -0.100983 27.1731 0.821306 26.6406L46.5 0.267949C47.1188 -0.089314 47.8812 -0.089317 48.5 0.267944L92 25.3824ZM21.471 26.1189C20.1441 26.8849 20.1361 28.7973 21.4564 29.5745L52.9166 48.0939C54.237 48.8711 54.2289 50.7834 52.9021 51.5495L47.0078 54.9525C46.3848 55.3122 45.6167 55.3096 44.9962 54.9458L24.5116 42.935C23.1783 42.1532 21.5 43.1147 21.5 44.6603V53.6795C21.5 54.394 21.8812 55.0543 22.5 55.4115L45 68.4023C45.6188 68.7596 46.3812 68.7596 47 68.4023L69.5 55.4115C70.1188 55.0543 70.5 54.394 70.5 53.6795V44.7236C70.5 43.1839 68.8331 42.2217 67.4998 42.9917L67.0442 43.2548C66.4237 43.6132 65.6589 43.6122 65.0393 43.2522L41.486 29.5689C40.1568 28.7967 40.1594 26.8761 41.4906 26.1075L46.5 23.2153C47.1188 22.858 47.8812 22.858 48.5 23.2153L65.5 33.0303C66.1188 33.3875 66.8812 33.3875 67.5 33.0303L73.5 29.5662C74.8333 28.7964 74.8333 26.8719 73.5 26.1021L48.5 11.6684C47.8812 11.3111 47.1188 11.3111 46.5 11.6684L21.471 26.1189Z" fill="#2563eb"/>
</svg>
